<mxfile host="app.diagrams.net" agent="Mozilla/5.0 (Macintosh; Intel Mac OS X 10_15_7) AppleWebKit/537.36 (KHTML, like Gecko) Chrome/131.0.0.0 Safari/537.36" version="24.8.4">
  <diagram id="C5RBs43oDa-KdzZeNtuy" name="Page-1">
    <mxGraphModel dx="1242" dy="785" grid="1" gridSize="10" guides="1" tooltips="1" connect="1" arrows="1" fold="1" page="1" pageScale="1" pageWidth="1200" pageHeight="1920" math="0" shadow="0">
      <root>
        <mxCell id="WIyWlLk6GJQsqaUBKTNV-0" />
        <mxCell id="WIyWlLk6GJQsqaUBKTNV-1" parent="WIyWlLk6GJQsqaUBKTNV-0" />
        <mxCell id="EMfQ8NgloSdVSQReStyt-35" value="" style="edgeStyle=orthogonalEdgeStyle;rounded=0;orthogonalLoop=1;jettySize=auto;html=1;" edge="1" parent="WIyWlLk6GJQsqaUBKTNV-1" source="WIyWlLk6GJQsqaUBKTNV-3" target="EMfQ8NgloSdVSQReStyt-33">
          <mxGeometry relative="1" as="geometry" />
        </mxCell>
        <mxCell id="WIyWlLk6GJQsqaUBKTNV-3" value="Start" style="rounded=1;whiteSpace=wrap;html=1;fontSize=12;glass=0;strokeWidth=1;shadow=0;" parent="WIyWlLk6GJQsqaUBKTNV-1" vertex="1">
          <mxGeometry x="470.17" y="100" width="85.93" height="30" as="geometry" />
        </mxCell>
        <mxCell id="EMfQ8NgloSdVSQReStyt-6" value="" style="edgeStyle=orthogonalEdgeStyle;rounded=0;orthogonalLoop=1;jettySize=auto;html=1;" edge="1" parent="WIyWlLk6GJQsqaUBKTNV-1" source="EMfQ8NgloSdVSQReStyt-2" target="EMfQ8NgloSdVSQReStyt-5">
          <mxGeometry relative="1" as="geometry" />
        </mxCell>
        <mxCell id="EMfQ8NgloSdVSQReStyt-2" value="Bend knees&amp;nbsp;" style="rounded=0;whiteSpace=wrap;html=1;" vertex="1" parent="WIyWlLk6GJQsqaUBKTNV-1">
          <mxGeometry x="742.5" y="330" width="110" height="40" as="geometry" />
        </mxCell>
        <mxCell id="EMfQ8NgloSdVSQReStyt-30" value="" style="edgeStyle=orthogonalEdgeStyle;rounded=0;orthogonalLoop=1;jettySize=auto;html=1;" edge="1" parent="WIyWlLk6GJQsqaUBKTNV-1" source="EMfQ8NgloSdVSQReStyt-5" target="EMfQ8NgloSdVSQReStyt-12">
          <mxGeometry relative="1" as="geometry" />
        </mxCell>
        <mxCell id="EMfQ8NgloSdVSQReStyt-5" value="Assume a plank position." style="whiteSpace=wrap;html=1;rounded=0;" vertex="1" parent="WIyWlLk6GJQsqaUBKTNV-1">
          <mxGeometry x="734.37" y="410" width="126.25" height="50" as="geometry" />
        </mxCell>
        <mxCell id="EMfQ8NgloSdVSQReStyt-17" value="" style="edgeStyle=orthogonalEdgeStyle;rounded=0;orthogonalLoop=1;jettySize=auto;html=1;" edge="1" parent="WIyWlLk6GJQsqaUBKTNV-1" source="EMfQ8NgloSdVSQReStyt-12" target="EMfQ8NgloSdVSQReStyt-16">
          <mxGeometry relative="1" as="geometry" />
        </mxCell>
        <mxCell id="EMfQ8NgloSdVSQReStyt-12" value="Perform the first push-up." style="whiteSpace=wrap;html=1;rounded=0;" vertex="1" parent="WIyWlLk6GJQsqaUBKTNV-1">
          <mxGeometry x="722.49" y="492.5" width="150" height="40" as="geometry" />
        </mxCell>
        <mxCell id="EMfQ8NgloSdVSQReStyt-20" value="" style="edgeStyle=orthogonalEdgeStyle;rounded=0;orthogonalLoop=1;jettySize=auto;html=1;" edge="1" parent="WIyWlLk6GJQsqaUBKTNV-1" source="EMfQ8NgloSdVSQReStyt-16" target="EMfQ8NgloSdVSQReStyt-19">
          <mxGeometry relative="1" as="geometry" />
        </mxCell>
        <mxCell id="EMfQ8NgloSdVSQReStyt-16" value="Perform the second push-up." style="whiteSpace=wrap;html=1;rounded=0;" vertex="1" parent="WIyWlLk6GJQsqaUBKTNV-1">
          <mxGeometry x="716.24" y="572.5" width="162.5" height="40" as="geometry" />
        </mxCell>
        <mxCell id="EMfQ8NgloSdVSQReStyt-22" value="" style="edgeStyle=orthogonalEdgeStyle;rounded=0;orthogonalLoop=1;jettySize=auto;html=1;" edge="1" parent="WIyWlLk6GJQsqaUBKTNV-1" source="EMfQ8NgloSdVSQReStyt-19" target="EMfQ8NgloSdVSQReStyt-21">
          <mxGeometry relative="1" as="geometry" />
        </mxCell>
        <mxCell id="EMfQ8NgloSdVSQReStyt-19" value="Perform the third push-up." style="whiteSpace=wrap;html=1;rounded=0;" vertex="1" parent="WIyWlLk6GJQsqaUBKTNV-1">
          <mxGeometry x="723.75" y="652.5" width="147.5" height="40" as="geometry" />
        </mxCell>
        <mxCell id="EMfQ8NgloSdVSQReStyt-24" value="" style="edgeStyle=orthogonalEdgeStyle;rounded=0;orthogonalLoop=1;jettySize=auto;html=1;" edge="1" parent="WIyWlLk6GJQsqaUBKTNV-1" source="EMfQ8NgloSdVSQReStyt-21" target="EMfQ8NgloSdVSQReStyt-23">
          <mxGeometry relative="1" as="geometry" />
        </mxCell>
        <mxCell id="EMfQ8NgloSdVSQReStyt-21" value="Stand up" style="whiteSpace=wrap;html=1;rounded=0;" vertex="1" parent="WIyWlLk6GJQsqaUBKTNV-1">
          <mxGeometry x="746.24" y="740" width="102.5" height="40" as="geometry" />
        </mxCell>
        <mxCell id="EMfQ8NgloSdVSQReStyt-26" value="" style="edgeStyle=orthogonalEdgeStyle;rounded=0;orthogonalLoop=1;jettySize=auto;html=1;" edge="1" parent="WIyWlLk6GJQsqaUBKTNV-1" source="EMfQ8NgloSdVSQReStyt-23" target="EMfQ8NgloSdVSQReStyt-25">
          <mxGeometry relative="1" as="geometry" />
        </mxCell>
        <mxCell id="EMfQ8NgloSdVSQReStyt-23" value="Push-ups are done" style="shape=parallelogram;perimeter=parallelogramPerimeter;whiteSpace=wrap;html=1;fixedSize=1;rounded=0;spacingLeft=5;spacingRight=5;" vertex="1" parent="WIyWlLk6GJQsqaUBKTNV-1">
          <mxGeometry x="726.25" y="822.5" width="142.5" height="47.5" as="geometry" />
        </mxCell>
        <mxCell id="EMfQ8NgloSdVSQReStyt-28" value="" style="edgeStyle=orthogonalEdgeStyle;rounded=0;orthogonalLoop=1;jettySize=auto;html=1;" edge="1" parent="WIyWlLk6GJQsqaUBKTNV-1" source="EMfQ8NgloSdVSQReStyt-25" target="EMfQ8NgloSdVSQReStyt-27">
          <mxGeometry relative="1" as="geometry" />
        </mxCell>
        <mxCell id="EMfQ8NgloSdVSQReStyt-25" value="Record Performance Data" style="shape=trapezoid;perimeter=trapezoidPerimeter;whiteSpace=wrap;html=1;fixedSize=1;rounded=0;spacingLeft=10;spacingRight=10;spacingTop=5;" vertex="1" parent="WIyWlLk6GJQsqaUBKTNV-1">
          <mxGeometry x="720" y="910" width="155" height="50" as="geometry" />
        </mxCell>
        <mxCell id="EMfQ8NgloSdVSQReStyt-27" value="End" style="rounded=1;whiteSpace=wrap;html=1;fontSize=12;glass=0;strokeWidth=1;shadow=0;" vertex="1" parent="WIyWlLk6GJQsqaUBKTNV-1">
          <mxGeometry x="746.25" y="1000" width="102.5" height="30" as="geometry" />
        </mxCell>
        <mxCell id="EMfQ8NgloSdVSQReStyt-36" value="" style="edgeStyle=orthogonalEdgeStyle;rounded=0;orthogonalLoop=1;jettySize=auto;html=1;" edge="1" parent="WIyWlLk6GJQsqaUBKTNV-1" source="EMfQ8NgloSdVSQReStyt-33" target="EMfQ8NgloSdVSQReStyt-2">
          <mxGeometry relative="1" as="geometry" />
        </mxCell>
        <mxCell id="EMfQ8NgloSdVSQReStyt-39" value="" style="edgeStyle=orthogonalEdgeStyle;rounded=0;orthogonalLoop=1;jettySize=auto;html=1;" edge="1" parent="WIyWlLk6GJQsqaUBKTNV-1" source="EMfQ8NgloSdVSQReStyt-33" target="EMfQ8NgloSdVSQReStyt-38">
          <mxGeometry relative="1" as="geometry">
            <Array as="points">
              <mxPoint x="270" y="248" />
            </Array>
          </mxGeometry>
        </mxCell>
        <mxCell id="EMfQ8NgloSdVSQReStyt-33" value="&lt;div style=&quot;padding-top: 5px; padding-left: 20px; margin-right: 0px; padding-right: 20px;&quot;&gt;Is the environment ready to start?&lt;/div&gt;" style="rhombus;whiteSpace=wrap;html=1;align=center;verticalAlign=middle;container=0;" vertex="1" parent="WIyWlLk6GJQsqaUBKTNV-1">
          <mxGeometry x="427.82" y="195" width="170.63" height="105" as="geometry" />
        </mxCell>
        <mxCell id="EMfQ8NgloSdVSQReStyt-37" value="Yes" style="text;html=1;align=center;verticalAlign=middle;resizable=0;points=[];autosize=1;strokeColor=none;fillColor=none;" vertex="1" parent="WIyWlLk6GJQsqaUBKTNV-1">
          <mxGeometry x="600" y="220" width="40" height="30" as="geometry" />
        </mxCell>
        <mxCell id="EMfQ8NgloSdVSQReStyt-38" value="Set up the environment for readiness." style="whiteSpace=wrap;html=1;" vertex="1" parent="WIyWlLk6GJQsqaUBKTNV-1">
          <mxGeometry x="202.505" y="330" width="120" height="60" as="geometry" />
        </mxCell>
        <mxCell id="EMfQ8NgloSdVSQReStyt-40" value="" style="endArrow=classic;html=1;rounded=0;" edge="1" parent="WIyWlLk6GJQsqaUBKTNV-1">
          <mxGeometry width="50" height="50" relative="1" as="geometry">
            <mxPoint x="200" y="360" as="sourcePoint" />
            <mxPoint x="510" y="160" as="targetPoint" />
            <Array as="points">
              <mxPoint x="150" y="360" />
              <mxPoint x="150" y="160" />
            </Array>
          </mxGeometry>
        </mxCell>
        <mxCell id="EMfQ8NgloSdVSQReStyt-41" value="No" style="text;html=1;align=center;verticalAlign=middle;resizable=0;points=[];autosize=1;strokeColor=none;fillColor=none;" vertex="1" parent="WIyWlLk6GJQsqaUBKTNV-1">
          <mxGeometry x="387.82" y="220" width="40" height="30" as="geometry" />
        </mxCell>
      </root>
    </mxGraphModel>
  </diagram>
</mxfile>
